<svg xmlns="http://www.w3.org/2000/svg" viewBox="1875.702 438.612 30.597 24.865">
  <defs>
    <style>
      .cls-1 {
        fill: #fff;
      }
    </style>
  </defs>
  <g id="twitter" transform="translate(1875.701 390.656)">
    <path id="Path_9" data-name="Path 9" class="cls-1" d="M30.6,50.9a12.552,12.552,0,0,1-3.605.988,6.3,6.3,0,0,0,2.76-3.473,12.567,12.567,0,0,1-3.986,1.523,6.283,6.283,0,0,0-10.7,5.725A17.821,17.821,0,0,1,2.131,49.1a6.284,6.284,0,0,0,1.943,8.381A6.252,6.252,0,0,1,1.231,56.7c0,.026,0,.052,0,.079a6.281,6.281,0,0,0,5.035,6.155,6.284,6.284,0,0,1-2.835.108A6.284,6.284,0,0,0,9.295,67.4a12.594,12.594,0,0,1-7.8,2.687A12.706,12.706,0,0,1,0,70a17.766,17.766,0,0,0,9.622,2.82c11.546,0,17.86-9.565,17.86-17.86q0-.408-.018-.812A12.753,12.753,0,0,0,30.6,50.9Z"/>
  </g>
</svg>
