<svg xmlns="http://www.w3.org/2000/svg" viewBox="1873.269 496.604 35.462 24.957">
  <defs>
    <style>
      .cls-1 {
        fill: #fff;
      }
    </style>
  </defs>
  <g id="youtube" transform="translate(1873.269 450.688)">
    <path id="XMLID_823_" class="cls-1" d="M34.08,48.059c-1.28-1.522-3.643-2.142-8.157-2.142H9.539c-4.617,0-7.02.661-8.3,2.281C0,49.777,0,52.1,0,55.326v6.139c0,6.24,1.475,9.409,9.539,9.409H25.923c3.914,0,6.083-.548,7.486-1.891,1.439-1.377,2.053-3.626,2.053-7.518V55.326C35.462,51.929,35.366,49.588,34.08,48.059ZM22.767,59.243l-7.44,3.888a1.144,1.144,0,0,1-1.674-1.014V54.366a1.144,1.144,0,0,1,1.671-1.015l7.44,3.863a1.144,1.144,0,0,1,0,2.029Z"/>
  </g>
</svg>
